<?xml version="1.0" encoding="UTF-8" standalone="no"?>
<!-- Created with Inkscape (http://www.inkscape.org/) -->

<svg
   xmlns:dc="http://purl.org/dc/elements/1.1/"
   xmlns:cc="http://creativecommons.org/ns#"
   xmlns:rdf="http://www.w3.org/1999/02/22-rdf-syntax-ns#"
   xmlns:svg="http://www.w3.org/2000/svg"
   xmlns="http://www.w3.org/2000/svg"
   xmlns:sodipodi="http://sodipodi.sourceforge.net/DTD/sodipodi-0.dtd"
   xmlns:inkscape="http://www.inkscape.org/namespaces/inkscape"
   width="768"
   height="128"
   viewBox="0 0 768 128"
   id="svg6529"
   version="1.1"
   inkscape:version="0.91 r13725"
   sodipodi:docname="icons.svg"
   inkscape:export-filename="/home/mray/Projects/FreedomBox/freedombox.org/git/html+css/images/icons.png"
   inkscape:export-xdpi="90"
   inkscape:export-ydpi="90">
  <defs
     id="defs6531" />
  <sodipodi:namedview
     id="base"
     pagecolor="#ffffff"
     bordercolor="#666666"
     borderopacity="1.0"
     inkscape:pageopacity="0.0"
     inkscape:pageshadow="2"
     inkscape:zoom="1.4142136"
     inkscape:cx="423.88164"
     inkscape:cy="67.1828"
     inkscape:document-units="px"
     inkscape:current-layer="layer1"
     showgrid="true"
     units="px"
     inkscape:snap-bbox="true"
     inkscape:bbox-nodes="true"
     showguides="true"
     inkscape:guide-bbox="true"
     inkscape:window-width="2493"
     inkscape:window-height="1376"
     inkscape:window-x="67"
     inkscape:window-y="27"
     inkscape:window-maximized="1"
     fit-margin-top="0"
     fit-margin-left="0"
     fit-margin-right="0"
     fit-margin-bottom="0">
    <inkscape:grid
       type="xygrid"
       id="grid7077"
       empspacing="32"
       originx="0"
       originy="-1.7382813e-05" />
    <sodipodi:guide
       position="128,63.999983"
       orientation="1,0"
       id="guide7121" />
    <sodipodi:guide
       position="480,63.999983"
       orientation="1,0"
       id="guide7125" />
    <sodipodi:guide
       position="160,63.999983"
       orientation="1,0"
       id="guide7127" />
    <sodipodi:guide
       position="320,63.999983"
       orientation="1,0"
       id="guide7129" />
    <sodipodi:guide
       position="288,63.999983"
       orientation="1,0"
       id="guide7131" />
    <sodipodi:guide
       position="608,63.999983"
       orientation="1,0"
       id="guide7133" />
    <sodipodi:guide
       position="448,63.999983"
       orientation="1,0"
       id="guide7137" />
    <sodipodi:guide
       position="640,63.999983"
       orientation="1,0"
       id="guide7143" />
  </sodipodi:namedview>
  <metadata
     id="metadata6534">
    <rdf:RDF>
      <cc:Work
         rdf:about="">
        <dc:format>image/svg+xml</dc:format>
        <dc:type
           rdf:resource="http://purl.org/dc/dcmitype/StillImage" />
        <dc:title></dc:title>
      </cc:Work>
    </rdf:RDF>
  </metadata>
  <g
     inkscape:label="Layer 1"
     inkscape:groupmode="layer"
     id="layer1"
     transform="translate(0,-924.36218)">
    <path
       sodipodi:nodetypes="cccccccccccccccccccccccccccccccccccssccccccccccsscccccccccccccccccccscccsccccccccccccccsscccccccccccccccccccccccsc"
       inkscape:connector-curvature="0"
       id="path14686"
       d="m 168.57155,986.23554 0,-38.05641 20.61225,0 20.61212,0 8.6417,8.69352 8.64188,8.69368 0,7.32123 0,7.32104 -2.90834,0 -2.90821,0 0,-5.8549 0,-5.85489 -6.26585,0 -6.26585,0 -0.91926,-0.96576 -0.9194,-0.96609 0,-6.26648 0,-6.26648 -16.42335,0 -16.4232,0 0,32.37377 0,32.37383 23.60258,0 23.60257,0 0.0913,-8.6961 0.0913,-8.6962 2.82268,-0.1006 2.82283,-0.099 0,11.5514 0,11.5516 -29.25397,0 -29.25398,0 0,-38.05678 z m 46.19052,-25.14136 c -2.15805,-2.17834 -4.04161,-3.96067 -4.18583,-3.96067 -0.14422,0 -0.26227,1.78233 -0.26227,3.96067 l 0,3.96067 4.18582,0 4.18582,0 z m 16.08103,60.44272 0,-2.7553 21.55549,0 21.5555,0 0,-25.31349 0,-25.31359 -6.44114,0 c -8.53148,0 -7.92911,0.61002 -7.92911,-8.02957 l 0,-6.43524 -16.42334,0 -16.42318,0 0,1.37735 0,1.37768 -2.90833,0 -2.90821,0 0,-4.13289 0,-4.13272 20.6121,0 20.61211,0 8.64172,8.69352 8.64186,8.69368 0,29.36292 0,29.36305 -24.29267,0 -24.29283,0 z m 40.03164,-56.57381 c 0,-0.0503 -1.77055,-1.8689 -3.93459,-4.04097 l -3.9349,-3.94939 0,4.04098 0,4.04114 3.9349,0 c 2.16404,0 3.93459,-0.0416 3.93459,-0.0919 z m -77.39341,35.98931 -6.3777,-6.45106 6.29323,-6.54365 6.2934,-6.54381 1.29115,1.29687 1.29104,1.29669 -4.44737,4.28241 -4.44749,4.28224 22.49639,0.0174 22.49654,0.0174 0,1.72198 0,1.72199 -22.41104,0 c -12.32597,0 -22.41087,0.11448 -22.41087,0.25358 0,0.13875 1.9277,2.19834 4.28385,4.57516 l 4.28381,4.3217 -1.12868,1.1008 -1.12868,1.1012 -6.37758,-6.451 z m 53.52091,-2.57087 -1.10631,-1.11371 4.35846,-4.39688 4.35832,-4.39671 -22.49139,0 -22.49155,0 0,-1.722 0,-1.72215 22.49155,0 22.49139,0 -4.43765,-4.47668 -4.43778,-4.47701 1.19684,-1.20443 1.19667,-1.20476 6.49295,6.54243 6.49295,6.5426 -6.32296,6.37142 c -3.47761,3.50433 -6.40435,6.37139 -6.50399,6.37139 -0.10015,0 -0.67893,-0.50103 -1.2875,-1.11351 z"
       style="display:inline;fill:#40c44b;fill-opacity:1;enable-background:new" />
    <path
       inkscape:connector-curvature="0"
       id="path13873"
       d="m 61.433771,935.69142 c -23.918778,0 -43.17453,19.38211 -43.17453,43.45817 l 0,13.68425 a 12.706923,12.790548 0 0 0 -8.3752342,12.01226 12.706923,12.790548 0 0 0 12.7071512,12.7904 12.706923,12.790548 0 0 0 3.754279,-0.5707 l 0,-33.14981 0.03512,0 0,-2.4753 c 0,-19.54761 15.633907,-35.2848 35.053651,-35.2848 19.419744,0 35.053469,15.73719 35.053469,35.2848 l 0,2.4753 0.03509,0 0,32.71401 a 12.706923,12.790548 0 0 0 2.929103,0.8298 c 0,0.2651 -0.02049,0.5333 -0.02049,0.8066 l 0,17.9263 c 0,0.7794 0.0331,1.5272 0.09143,2.2286 l -25.851711,0 0,-3.1977 c 0,-1.2881 -1.030643,-2.3257 -2.310557,-2.3257 l -12.360291,0 c -1.279935,0 -2.310375,1.0376 -2.310375,2.3257 l 0,4.296 0,1.5178 0,1.2276 c 0,0.6084 0.486889,1.0978 1.091206,1.0978 l 1.219169,0 12.360291,0 29.919158,0 0.75699,0 c 0.60453,0 1.09142,-0.4894 1.09142,-1.0978 l 0,-2.7454 c 0,-0.1996 -0.0527,-0.3842 -0.14411,-0.5444 0.0914,-0.8551 0.14411,-1.7946 0.14411,-2.7825 l 0,-17.9263 c 0,-0.2564 0,-0.509 -0.0205,-0.7582 a 12.706923,12.790548 0 0 0 11.01318,-12.6621 12.706923,12.790548 0 0 0 -9.52992,-12.36814 l 0,-13.32837 c 0,-24.07606 -19.256165,-43.45817 -43.174943,-43.45817 z m -28.735053,45.7831 c -1.919894,0 -3.465654,1.5555 -3.465654,3.48818 l 0,39.7671 c 0,1.9323 1.54576,3.4881 3.465654,3.4881 l 8.664042,0 c 1.919893,0 3.465471,-1.5558 3.465471,-3.4881 l 0,-39.7671 c 0,-1.93268 -1.545578,-3.48818 -3.465471,-3.48818 l -8.664042,0 z m 48.517233,0 c -1.919872,0 -3.465449,1.5555 -3.465449,3.48818 l 0,39.7671 c 0,1.9323 1.545577,3.4881 3.465449,3.4881 l 8.664247,0 c 1.919893,0 3.465449,-1.5558 3.465449,-3.4881 l 0,-39.7671 c 0,-1.93268 -1.545556,-3.48818 -3.465449,-3.48818 l -8.664247,0 z"
       style="display:inline;opacity:1;fill:#40c44b;fill-opacity:1;stroke:none;stroke-width:5.28399992;stroke-miterlimit:4;stroke-dasharray:none;stroke-opacity:1;enable-background:new" />
    <g
       style="display:inline;enable-background:new"
       id="g14284"
       transform="matrix(1.8297385,0,0,1.8417801,-1534.1769,4699.0297)">
      <rect
         ry="1.8002534"
         rx="1.8002534"
         y="-2044.7311"
         x="1055.5294"
         height="14.916436"
         width="5.9151387"
         id="rect11990"
         style="opacity:1;fill:#40c44b;fill-opacity:1;stroke:none;stroke-width:0.95600986;stroke-miterlimit:4;stroke-dasharray:none;stroke-opacity:1" />
      <rect
         style="opacity:1;fill:#40c44b;fill-opacity:1;stroke:none;stroke-width:0.95600986;stroke-miterlimit:4;stroke-dasharray:none;stroke-opacity:1"
         id="rect11988"
         width="5.9151387"
         height="14.916436"
         x="1034.72"
         y="-2044.7311"
         rx="1.8002534"
         ry="1.8002534" />
      <path
         style="opacity:1;fill:#40c44b;fill-opacity:1;stroke:none;stroke-width:1.94675219;stroke-miterlimit:4;stroke-dasharray:none;stroke-opacity:1"
         d="m 348.39453,19.546875 c -5.65224,0 -10.19922,4.517409 -10.19922,10.132813 l 0,6.917968 0,62.910156 c 0,5.615408 4.54698,10.134768 10.19922,10.134768 l 70.28711,0 c 5.65243,0 10.20117,-4.51936 10.20117,-10.134768 l 0,-69.828124 c 0,-5.615404 -4.54874,-10.132813 -10.20117,-10.132813 l -8.10937,0 0,13.953125 c 0,2.739517 -2.19051,4.945312 -4.91211,4.945312 l -6.31641,0 c -2.72161,10e-7 -4.91211,-2.205795 -4.91211,-4.945312 l 0,-13.953125 -21.85937,0 0,13.953125 c 0,2.739517 -2.19051,4.945312 -4.91211,4.945312 l -6.31641,0 c -2.72161,10e-7 -4.91211,-2.205795 -4.91211,-4.945312 l 0,-13.953125 -8.03711,0 z m 0.89844,24.158203 9.18945,0 c 1.61365,0 2.91211,1.307375 2.91211,2.931641 l 0,9.248047 c 0,1.624265 -1.29846,2.93164 -2.91211,2.93164 l -9.18945,0 c -1.61365,0 -2.91211,-1.307375 -2.91211,-2.93164 l 0,-9.248047 c 0,-1.624266 1.29846,-2.931641 2.91211,-2.931641 z m 19.91015,0 9.18946,0 c 1.61364,0 2.91211,1.307375 2.91211,2.931641 l 0,9.248047 c 0,1.624265 -1.29847,2.93164 -2.91211,2.93164 l -9.18946,0 c -1.61364,0 -2.9121,-1.307375 -2.9121,-2.93164 l 0,-9.248047 c 0,-1.624266 1.29846,-2.931641 2.9121,-2.931641 z m 19.91016,0 9.18945,0 c 1.61365,0 2.91211,1.307375 2.91211,2.931641 l 0,9.248047 c 0,1.624265 -1.29846,2.93164 -2.91211,2.93164 l -9.18945,0 c -1.61383,0 -2.91211,-1.307375 -2.91211,-2.93164 l 0,-9.248047 c 0,-1.624266 1.29828,-2.931641 2.91211,-2.931641 z m 19.91016,0 9.1875,0 c 1.61364,0 2.91211,1.307375 2.91211,2.931641 l 0,9.248047 c 0,1.624265 -1.29847,2.93164 -2.91211,2.93164 l -9.1875,0 c -1.61383,0 -2.91406,-1.307375 -2.91406,-2.93164 l 0,-9.248047 c 0,-1.624266 1.30023,-2.931641 2.91406,-2.931641 z m -59.73047,20.041016 9.18945,0 c 1.61365,0 2.91211,1.307375 2.91211,2.93164 l 0,9.248047 c 0,1.624266 -1.29846,2.931641 -2.91211,2.931641 l -9.18945,0 c -1.61365,0 -2.91211,-1.307375 -2.91211,-2.931641 l 0,-9.248047 c 0,-1.624265 1.29846,-2.93164 2.91211,-2.93164 z m 19.91015,0 9.18946,0 c 1.61364,0 2.91211,1.307375 2.91211,2.93164 l 0,9.248047 c 0,1.624266 -1.29847,2.931641 -2.91211,2.931641 l -9.18946,0 c -1.61364,0 -2.9121,-1.307375 -2.9121,-2.931641 l 0,-9.248047 c 0,-1.624265 1.29846,-2.93164 2.9121,-2.93164 z m 19.91016,0 9.18945,0 c 1.61365,0 2.91211,1.307375 2.91211,2.93164 l 0,9.248047 c 0,1.624266 -1.29846,2.931641 -2.91211,2.931641 l -9.18945,0 c -1.61383,0 -2.91211,-1.307375 -2.91211,-2.931641 l 0,-9.248047 c 0,-1.624265 1.29828,-2.93164 2.91211,-2.93164 z m 19.91016,0 9.1875,0 c 1.61364,0 2.91211,1.307375 2.91211,2.93164 l 0,9.248047 c 0,1.624266 -1.29847,2.931641 -2.91211,2.931641 l -9.1875,0 c -1.61383,0 -2.91406,-1.307375 -2.91406,-2.931641 l 0,-9.248047 c 0,-1.624265 1.30023,-2.93164 2.91406,-2.93164 z m -59.73047,20.039062 9.18945,0 c 1.61365,0 2.91211,1.309144 2.91211,2.933594 l 0,9.248047 c 0,1.624266 -1.29846,2.931641 -2.91211,2.931641 l -9.18945,0 c -1.61365,0 -2.91211,-1.307375 -2.91211,-2.931641 l 0,-9.248047 c 0,-1.62445 1.29846,-2.933594 2.91211,-2.933594 z m 19.91015,0 9.18946,0 c 1.61364,0 2.91211,1.309144 2.91211,2.933594 l 0,9.248047 c 0,1.624266 -1.29847,2.931641 -2.91211,2.931641 l -9.18946,0 c -1.61364,0 -2.9121,-1.307375 -2.9121,-2.931641 l 0,-9.248047 c 0,-1.62445 1.29846,-2.933594 2.9121,-2.933594 z m 19.91016,0 9.18945,0 c 1.61365,0 2.91211,1.309144 2.91211,2.933594 l 0,9.248047 c 0,1.624266 -1.29846,2.931641 -2.91211,2.931641 l -9.18945,0 c -1.61383,0 -2.91211,-1.307375 -2.91211,-2.931641 l 0,-9.248047 c 0,-1.62445 1.29828,-2.933594 2.91211,-2.933594 z m 19.91016,0 9.1875,0 c 1.61364,0 2.91211,1.309144 2.91211,2.933594 l 0,9.248047 c 0,1.624266 -1.29847,2.931641 -2.91211,2.931641 l -9.1875,0 c -1.61383,0 -2.91406,-1.307375 -2.91406,-2.931641 l 0,-9.248047 c 0,-1.62445 1.30023,-2.933594 2.91406,-2.933594 z"
         transform="matrix(0.54652618,0,0,0.54295298,838.46785,-2049.467)"
         id="rect14206"
         inkscape:connector-curvature="0" />
      <g
         transform="matrix(0,0.29757539,-0.29757539,0,652.31948,-2054.9896)"
         id="g14212" />
    </g>
  </g>
</svg>
